<svg xmlns="http://www.w3.org/2000/svg" viewBox="0 0 512 512" role="img" aria-labelledby="title desc">
  <title id="title">Japan Live Radar</title>
  <desc id="desc">A radar ring around a concert ticket for Japan Live Radar.</desc>
  <rect width="512" height="512" rx="112" fill="#245a45"/>
  <circle cx="256" cy="256" r="168" fill="none" stroke="#d7f2df" stroke-width="18" opacity="0.78"/>
  <circle cx="256" cy="256" r="106" fill="none" stroke="#f7c948" stroke-width="16" opacity="0.9"/>
  <path d="M256 92v328M92 256h328" stroke="#d7f2df" stroke-width="14" stroke-linecap="round" opacity="0.72"/>
  <path d="M168 176h176a28 28 0 0 1 28 28v30a34 34 0 0 0 0 44v30a28 28 0 0 1-28 28H168a28 28 0 0 1-28-28v-30a34 34 0 0 0 0-44v-30a28 28 0 0 1 28-28Z" fill="#fffdf5"/>
  <path d="M202 226h108M202 256h72M202 286h122" stroke="#245a45" stroke-width="18" stroke-linecap="round"/>
  <circle cx="342" cy="256" r="18" fill="#bb2d4a"/>
</svg>
